<svg width="100" height="100" viewBox="0 0 100 100" fill="none" xmlns="http://www.w3.org/2000/svg">
<path d="M67.9688 46.875H53.125V32.0312C53.125 31.6016 52.7734 31.25 52.3438 31.25H47.6562C47.2266 31.25 46.875 31.6016 46.875 32.0312V46.875H32.0312C31.6016 46.875 31.25 47.2266 31.25 47.6562V52.3438C31.25 52.7734 31.6016 53.125 32.0312 53.125H46.875V67.9688C46.875 68.3984 47.2266 68.75 47.6562 68.75H52.3438C52.7734 68.75 53.125 68.3984 53.125 67.9688V53.125H67.9688C68.3984 53.125 68.75 52.7734 68.75 52.3438V47.6562C68.75 47.2266 68.3984 46.875 67.9688 46.875Z" fill="black"/>
<path d="M50 6.25C25.8398 6.25 6.25 25.8398 6.25 50C6.25 74.1602 25.8398 93.75 50 93.75C74.1602 93.75 93.75 74.1602 93.75 50C93.75 25.8398 74.1602 6.25 50 6.25ZM50 86.3281C29.9414 86.3281 13.6719 70.0586 13.6719 50C13.6719 29.9414 29.9414 13.6719 50 13.6719C70.0586 13.6719 86.3281 29.9414 86.3281 50C86.3281 70.0586 70.0586 86.3281 50 86.3281Z" fill="black"/>
</svg>
