<svg width="35" height="35" viewBox="0 0 35 35" fill="none" xmlns="http://www.w3.org/2000/svg">
<path d="M12.3047 6.28906H12.0312C12.1816 6.28906 12.3047 6.16602 12.3047 6.01562V6.28906H22.6953V6.01562C22.6953 6.16602 22.8184 6.28906 22.9688 6.28906H22.6953V8.75H25.1562V6.01562C25.1562 4.80908 24.1753 3.82812 22.9688 3.82812H12.0312C10.8247 3.82812 9.84375 4.80908 9.84375 6.01562V8.75H12.3047V6.28906ZM29.5312 8.75H5.46875C4.86377 8.75 4.375 9.23877 4.375 9.84375V10.9375C4.375 11.0879 4.49805 11.2109 4.64844 11.2109H6.71289L7.55713 29.0869C7.61182 30.2524 8.57568 31.1719 9.74121 31.1719H25.2588C26.4277 31.1719 27.3882 30.2559 27.4429 29.0869L28.2871 11.2109H30.3516C30.502 11.2109 30.625 11.0879 30.625 10.9375V9.84375C30.625 9.23877 30.1362 8.75 29.5312 8.75ZM24.9956 28.7109H10.0044L9.17725 11.2109H25.8228L24.9956 28.7109Z" fill="white"/>
</svg>
