<svg width="35" height="35" viewBox="0 0 35 35" fill="none" xmlns="http://www.w3.org/2000/svg">
<path d="M17.4795 4.23828C9.9292 4.24853 3.82812 10.3564 3.82812 17.9067C3.82812 22.2817 5.88574 26.1782 9.08496 28.6802L7.80322 30.3208C7.66309 30.5019 7.79297 30.7651 8.01855 30.7617L13.7266 30.7344C13.9043 30.7344 14.0342 30.5669 13.9897 30.396L12.6396 24.8486C12.6275 24.7986 12.6014 24.7531 12.5645 24.7172C12.5275 24.6814 12.4812 24.6567 12.4309 24.6459C12.3806 24.6352 12.3282 24.639 12.2799 24.6567C12.2316 24.6744 12.1892 24.7054 12.1577 24.7461L10.7666 26.5269C10.418 26.2534 10.083 25.9561 9.76514 25.6382C8.76579 24.6423 7.96946 23.4617 7.42041 22.1621C6.84961 20.8154 6.5625 19.3833 6.5625 17.9067C6.5625 16.4302 6.84961 14.998 7.42041 13.6514C7.9707 12.3491 8.76025 11.1802 9.76514 10.1753C10.77 9.17041 11.939 8.38086 13.2412 7.83056C14.5913 7.25976 16.0234 6.97265 17.5 6.97265C18.9766 6.97265 20.4087 7.25976 21.7554 7.83056C23.0576 8.38086 24.2266 9.17041 25.2314 10.1753C26.2363 11.1802 27.0259 12.3491 27.5762 13.6514C28.147 14.998 28.4341 16.4302 28.4341 17.9067C28.4341 19.3833 28.147 20.8154 27.5762 22.1621C27.0271 23.4617 26.2308 24.6423 25.2314 25.6382C24.9751 25.8945 24.7085 26.1338 24.4316 26.3628C24.3762 26.4078 24.3407 26.473 24.3331 26.544C24.3254 26.6151 24.3461 26.6863 24.3906 26.7422L25.7373 28.4683C25.833 28.5879 26.0073 28.6084 26.127 28.5127C29.2065 26.0039 31.1719 22.186 31.1719 17.9067C31.1719 10.3496 25.04 4.22802 17.4795 4.23828Z" fill="white"/>
</svg>
