<svg width="100" height="100" viewBox="0 0 100 100" fill="none" xmlns="http://www.w3.org/2000/svg">
<path d="M90.625 43.3594H80.0781V32.2656C80.0781 30.5371 78.6816 29.1406 76.9531 29.1406H46.1914L34.7363 18.1836C34.5906 18.0471 34.3989 17.9705 34.1992 17.9688H9.375C7.64648 17.9688 6.25 19.3652 6.25 21.0938V78.9062C6.25 80.6348 7.64648 82.0312 9.375 82.0312H77.5391C78.8086 82.0312 79.9609 81.2598 80.4395 80.0781L93.5254 47.6562C93.6719 47.2852 93.75 46.8848 93.75 46.4844C93.75 44.7559 92.3535 43.3594 90.625 43.3594ZM13.2812 25H31.6895L43.3691 36.1719H73.0469V43.3594H23.2422C21.9727 43.3594 20.8203 44.1309 20.3418 45.3125L13.2812 62.8125V25ZM75.3223 75H15.5273L25.6152 50H85.4199L75.3223 75Z" fill="black"/>
</svg>
