<svg width="100" height="100" viewBox="0 0 100 100" fill="none" xmlns="http://www.w3.org/2000/svg">
<path d="M35.1562 17.9688H34.375C34.8047 17.9688 35.1562 17.6172 35.1562 17.1875V17.9688H64.8438V17.1875C64.8438 17.6172 65.1953 17.9688 65.625 17.9688H64.8438V25H71.875V17.1875C71.875 13.7402 69.0723 10.9375 65.625 10.9375H34.375C30.9277 10.9375 28.125 13.7402 28.125 17.1875V25H35.1562V17.9688ZM84.375 25H15.625C13.8965 25 12.5 26.3965 12.5 28.125V31.25C12.5 31.6797 12.8516 32.0312 13.2812 32.0312H19.1797L21.5918 83.1055C21.748 86.4355 24.502 89.0625 27.832 89.0625H72.168C75.5078 89.0625 78.252 86.4453 78.4082 83.1055L80.8203 32.0312H86.7188C87.1484 32.0312 87.5 31.6797 87.5 31.25V28.125C87.5 26.3965 86.1035 25 84.375 25ZM71.416 82.0312H28.584L26.2207 32.0312H73.7793L71.416 82.0312Z" fill="black"/>
</svg>
