<svg width="100" height="100" viewBox="0 0 100 100" fill="none" xmlns="http://www.w3.org/2000/svg">
<path d="M84.7656 71.4844H77.9004C77.4316 71.4844 76.9922 71.6894 76.6992 72.0508C76.0156 72.8809 75.2832 73.6816 74.5117 74.4434C71.3563 77.6018 67.6188 80.1189 63.5058 81.8555C59.2447 83.6553 54.6647 84.5786 50.039 84.5703C45.3613 84.5703 40.8301 83.6523 36.5722 81.8555C32.4592 80.1189 28.7217 77.6018 25.5664 74.4434C22.4054 71.2955 19.8849 67.5645 18.1445 63.457C16.3379 59.1992 15.4297 54.6777 15.4297 50C15.4297 45.3223 16.3476 40.8008 18.1445 36.543C19.8828 32.4316 22.3828 28.7305 25.5664 25.5566C28.75 22.3828 32.4511 19.8828 36.5722 18.1445C40.8301 16.3477 45.3613 15.4297 50.039 15.4297C54.7168 15.4297 59.248 16.3379 63.5058 18.1445C67.6269 19.8828 71.3281 22.3828 74.5117 25.5566C75.2832 26.3281 76.0058 27.1289 76.6992 27.9492C76.9922 28.3105 77.4414 28.5156 77.9004 28.5156H84.7656C85.3808 28.5156 85.7617 27.832 85.4199 27.3144C77.9297 15.6738 64.8242 7.96875 49.9316 8.00781C26.5332 8.0664 7.77341 27.0605 8.00779 50.4297C8.24216 73.4277 26.9726 91.9922 50.039 91.9922C64.8926 91.9922 77.9394 84.2969 85.4199 72.6855C85.7519 72.168 85.3808 71.4844 84.7656 71.4844ZM93.4472 49.3848L79.5898 38.4473C79.0722 38.0371 78.3203 38.4082 78.3203 39.0625V46.4844H47.6562C47.2265 46.4844 46.875 46.8359 46.875 47.2656V52.7344C46.875 53.1641 47.2265 53.5156 47.6562 53.5156H78.3203V60.9375C78.3203 61.5918 79.082 61.9629 79.5898 61.5527L93.4472 50.6152C93.5406 50.5421 93.6161 50.4488 93.6681 50.3422C93.72 50.2356 93.747 50.1186 93.747 50C93.747 49.8814 93.72 49.7644 93.6681 49.6578C93.6161 49.5512 93.5406 49.4578 93.4472 49.3848Z" fill="black"/>
</svg>
