<svg width="35" height="35" viewBox="0 0 35 35" fill="none" xmlns="http://www.w3.org/2000/svg">
<path d="M23.8915 12.0654H22.2885C21.9399 12.0654 21.6083 12.2329 21.4033 12.52L16.0302 19.9712L13.5966 16.5942C13.3915 16.3105 13.0634 16.1396 12.7114 16.1396H11.1083C10.8862 16.1396 10.7563 16.3926 10.8862 16.5737L15.145 22.48C15.2456 22.6204 15.3782 22.7348 15.5319 22.8138C15.6855 22.8927 15.8558 22.9339 16.0285 22.9339C16.2013 22.9339 16.3715 22.8927 16.5252 22.8138C16.6788 22.7348 16.8114 22.6204 16.9121 22.48L24.1103 12.4995C24.2436 12.3184 24.1137 12.0654 23.8915 12.0654Z" fill="white"/>
<path d="M17.5 2.1875C9.04395 2.1875 2.1875 9.04395 2.1875 17.5C2.1875 25.9561 9.04395 32.8125 17.5 32.8125C25.9561 32.8125 32.8125 25.9561 32.8125 17.5C32.8125 9.04395 25.9561 2.1875 17.5 2.1875ZM17.5 30.2148C10.4795 30.2148 4.78516 24.5205 4.78516 17.5C4.78516 10.4795 10.4795 4.78516 17.5 4.78516C24.5205 4.78516 30.2148 10.4795 30.2148 17.5C30.2148 24.5205 24.5205 30.2148 17.5 30.2148Z" fill="white"/>
</svg>
